<svg id="dashboard" xmlns="http://www.w3.org/2000/svg" width="17" height="17" viewBox="0 0 17 17">
  <path id="Path_578" data-name="Path 578" d="M6.552,0H1.24A1.241,1.241,0,0,0,0,1.24V4.427a1.241,1.241,0,0,0,1.24,1.24H6.552a1.241,1.241,0,0,0,1.24-1.24V1.24A1.241,1.241,0,0,0,6.552,0Zm0,0" fill="#558b2f"/>
  <path id="Path_579" data-name="Path 579" d="M6.552,213.332H1.24A1.241,1.241,0,0,0,0,214.572v7.437a1.241,1.241,0,0,0,1.24,1.24H6.552a1.241,1.241,0,0,0,1.24-1.24v-7.437A1.241,1.241,0,0,0,6.552,213.332Zm0,0" transform="translate(0 -206.249)" fill="#558b2f"/>
  <path id="Path_580" data-name="Path 580" d="M283.884,341.332h-5.312a1.241,1.241,0,0,0-1.24,1.24v3.188a1.241,1.241,0,0,0,1.24,1.24h5.313a1.241,1.241,0,0,0,1.24-1.24v-3.187A1.241,1.241,0,0,0,283.884,341.332Zm0,0" transform="translate(-268.124 -329.999)" fill="#558b2f"/>
  <path id="Path_581" data-name="Path 581" d="M283.884,0h-5.312a1.241,1.241,0,0,0-1.24,1.24V8.677a1.241,1.241,0,0,0,1.24,1.24h5.313a1.241,1.241,0,0,0,1.24-1.24V1.24A1.241,1.241,0,0,0,283.884,0Zm0,0" transform="translate(-268.124)" fill="#558b2f"/>
</svg>
