<svg xmlns="http://www.w3.org/2000/svg" width="24.378" height="25.768" viewBox="0 0 24.378 25.768">
  <g id="Group_7223" data-name="Group 7223" transform="translate(0 25.768) rotate(-90)">
    <ellipse id="Ellipse_28" data-name="Ellipse 28" cx="12.884" cy="12.189" rx="12.884" ry="12.189" transform="translate(0)" fill="#f26c7e"/>
    <g id="tool" transform="translate(19.165 6.268) rotate(90)">
      <path id="Path_322" data-name="Path 322" d="M5.31,6.157a.575.575,0,0,0,.291.022.418.418,0,0,0,.213-.132C7.775,4,8.979,2.136,8.915.392L7.409,1.957a2.3,2.3,0,0,1-.528.989A2.165,2.165,0,0,1,5.93,3.5l-.478.5a1.025,1.025,0,0,0-.124-.174c-.01-.011-.02-.023-.03-.035a.99.99,0,0,0-.2-.16l.479-.5A2.3,2.3,0,0,1,6.1,2.139a2.163,2.163,0,0,1,.949-.548L8.56.024A1.678,1.678,0,0,0,8.274,0C6.245,0,3.105,3.265,3.1,3.268h0a.44.44,0,0,0-.109.21.644.644,0,0,0,.022.286c.036.153.078.3.1.46a4.446,4.446,0,0,1,.041,1.113,5.666,5.666,0,0,1-.189,1.086,7.223,7.223,0,0,1-.394,1.043A15.089,15.089,0,0,1,1.451,9.425c-.392.6-.821,1.169-1.229,1.754a1.253,1.253,0,0,0-.177.325.946.946,0,0,0-.039.4.912.912,0,0,0,.434.672.848.848,0,0,0,.873-.01,2.009,2.009,0,0,0,.309-.265c.156-.148.307-.3.455-.458a11.78,11.78,0,0,0,2.455-3.8,6.864,6.864,0,0,0,.315-1.042l.7.406.2-.2-.8-.828a4.706,4.706,0,0,0,.009-.93.963.963,0,0,0,.279-.171,4.718,4.718,0,0,1,.027.861Zm-.48-1.42a.308.308,0,0,1-.447,0,.338.338,0,0,1,0-.465.308.308,0,0,1,.448,0,.338.338,0,0,1,0,.465Z" transform="translate(3.272 0)" fill="#fff"/>
      <path id="Path_323" data-name="Path 323" d="M5.991,3.159a5.491,5.491,0,0,0,.147-.91A4.092,4.092,0,0,0,6.1,1.216c-.007-.041-.016-.083-.025-.125h0L5.026,0l-.2.2.544,1.015a8.065,8.065,0,0,0-1.879.77A10.719,10.719,0,0,0,1.645,3.3,12.791,12.791,0,0,0,.217,4.728a.935.935,0,0,0-.17.9.886.886,0,0,0,.693.6.913.913,0,0,0,.7-.208c.27-.2.535-.41.8-.618.584-.458,1.191-.886,1.811-1.288A8.156,8.156,0,0,1,5.991,3.159Z" transform="translate(0 3.063)" fill="#fff"/>
    </g>
  </g>
</svg>
