<svg xmlns="http://www.w3.org/2000/svg" width="24.378" height="24.378" viewBox="0 0 24.378 24.378">
  <g id="Group_1442" data-name="Group 1442" transform="translate(0 24.378) rotate(-90)">
    <ellipse id="Ellipse_28" data-name="Ellipse 28" cx="12.189" cy="12.189" rx="12.189" ry="12.189" transform="translate(0)" fill="#9997eb"/>
    <g id="cable-reel" transform="translate(18.145 6.784) rotate(90)">
      <path id="Path_313" data-name="Path 313" d="M0,0H9.308V1.476H0ZM0,0" fill="#fff"/>
      <path id="Path_314" data-name="Path 314" d="M0,0H9.308V1.428H0ZM0,0" transform="translate(0 10.761)" fill="#fff"/>
      <path id="Path_315" data-name="Path 315" d="M0,0H6.428V.714H0ZM0,0" transform="translate(1.452 2.19)" fill="#fff"/>
      <path id="Path_316" data-name="Path 316" d="M0,0H6.428V.714H0ZM0,0" transform="translate(1.452 3.619)" fill="#fff"/>
      <path id="Path_317" data-name="Path 317" d="M0,0H6.428V.714H0ZM0,0" transform="translate(1.452 5.047)" fill="#fff"/>
      <path id="Path_318" data-name="Path 318" d="M0,0H6.428V.714H0ZM0,0" transform="translate(1.452 6.476)" fill="#fff"/>
      <path id="Path_319" data-name="Path 319" d="M0,0H6.428V.714H0ZM0,0" transform="translate(1.452 9.332)" fill="#fff"/>
      <path id="Path_320" data-name="Path 320" d="M8.928,0A1.786,1.786,0,0,0,7.142,1.786V3.928a.351.351,0,0,1-.357.357H0V5H6.785A1.076,1.076,0,0,0,7.856,3.928V1.786A1.07,1.07,0,0,1,8.928.714h.381V0Zm0,0" transform="translate(1.452 3.619)" fill="#fff"/>
    </g>
  </g>
</svg>
