<svg id="Group_1441" data-name="Group 1441" xmlns="http://www.w3.org/2000/svg" width="24.378" height="24.378" viewBox="0 0 24.378 24.378">
  <g id="Group_688" data-name="Group 688" transform="translate(0 24.378) rotate(-90)">
    <circle id="Ellipse_28" data-name="Ellipse 28" cx="12.189" cy="12.189" r="12.189" transform="translate(0)" fill="#46ce8a"/>
    <path id="lamp-post" d="M10.665,0H8.254a.509.509,0,0,0-.387.178H7.2a1.976,1.976,0,0,0-1.362.6,2,2,0,0,0-.249.314A2,2,0,0,0,5.339.781a1.975,1.975,0,0,0-1.361-.6H3.308A.509.509,0,0,0,2.921,0H.51A.51.51,0,0,0,0,.51v.646H.161c0,.455.506.811,1.152.811s1.152-.356,1.152-.811h.967V.8h.526A1.356,1.356,0,0,1,5.275,2.164v9.258H4.327v.788H6.848v-.788H5.9V2.164A1.356,1.356,0,0,1,7.218.8h.525v.354h.967c0,.455.506.811,1.152.811s1.152-.356,1.152-.811h.161V.51A.51.51,0,0,0,10.665,0ZM1.313,1.687c-.472,0-.871-.243-.871-.53H2.184C2.184,1.444,1.785,1.687,1.313,1.687Zm8.549,0c-.472,0-.871-.243-.871-.53h1.742C10.733,1.444,10.334,1.687,9.862,1.687Z" transform="translate(18.527 6.826) rotate(90)" fill="#fff"/>
  </g>
</svg>
